<svg width="354" height="322" viewBox="0 0 354 322" fill="none" xmlns="http://www.w3.org/2000/svg">
<g opacity="0.5">
<rect y="322" width="2" height="2" transform="rotate(-90 0 322)" fill="#444444"/>
<rect y="290" width="2" height="2" transform="rotate(-90 0 290)" fill="#444444"/>
<rect y="258" width="2" height="2" transform="rotate(-90 0 258)" fill="#444444"/>
<rect y="226" width="2" height="2" transform="rotate(-90 0 226)" fill="#444444"/>
<rect y="194" width="2" height="2" transform="rotate(-90 0 194)" fill="#444444"/>
<rect y="162" width="2" height="2" transform="rotate(-90 0 162)" fill="#444444"/>
<rect y="130" width="2" height="2" transform="rotate(-90 0 130)" fill="#444444"/>
<rect y="98" width="2" height="2" transform="rotate(-90 0 98)" fill="#444444"/>
<rect y="66" width="2" height="2" transform="rotate(-90 0 66)" fill="#444444"/>
<rect y="34" width="2" height="2" transform="rotate(-90 0 34)" fill="#444444"/>
<rect y="2" width="2" height="2" transform="rotate(-90 0 2)" fill="#444444"/>
<rect x="32" y="322" width="2" height="2" transform="rotate(-90 32 322)" fill="#444444"/>
<rect x="32" y="290" width="2" height="2" transform="rotate(-90 32 290)" fill="#444444"/>
<rect x="32" y="258" width="2" height="2" transform="rotate(-90 32 258)" fill="#444444"/>
<rect x="32" y="226" width="2" height="2" transform="rotate(-90 32 226)" fill="#444444"/>
<rect x="32" y="194" width="2" height="2" transform="rotate(-90 32 194)" fill="#444444"/>
<rect x="32" y="162" width="2" height="2" transform="rotate(-90 32 162)" fill="#444444"/>
<rect x="32" y="130" width="2" height="2" transform="rotate(-90 32 130)" fill="#444444"/>
<rect x="32" y="98" width="2" height="2" transform="rotate(-90 32 98)" fill="#444444"/>
<rect x="32" y="66" width="2" height="2" transform="rotate(-90 32 66)" fill="#444444"/>
<rect x="32" y="34" width="2" height="2" transform="rotate(-90 32 34)" fill="#444444"/>
<rect x="32" y="2" width="2" height="2" transform="rotate(-90 32 2)" fill="#444444"/>
<rect x="64" y="322" width="2" height="2" transform="rotate(-90 64 322)" fill="#444444"/>
<rect x="64" y="290" width="2" height="2" transform="rotate(-90 64 290)" fill="#444444"/>
<rect x="64" y="258" width="2" height="2" transform="rotate(-90 64 258)" fill="#444444"/>
<rect x="64" y="226" width="2" height="2" transform="rotate(-90 64 226)" fill="#444444"/>
<rect x="64" y="194" width="2" height="2" transform="rotate(-90 64 194)" fill="#444444"/>
<rect x="64" y="162" width="2" height="2" transform="rotate(-90 64 162)" fill="#444444"/>
<rect x="64" y="130" width="2" height="2" transform="rotate(-90 64 130)" fill="#444444"/>
<rect x="64" y="98" width="2" height="2" transform="rotate(-90 64 98)" fill="#444444"/>
<rect x="64" y="66" width="2" height="2" transform="rotate(-90 64 66)" fill="#444444"/>
<rect x="64" y="34" width="2" height="2" transform="rotate(-90 64 34)" fill="#444444"/>
<rect x="64" y="2" width="2" height="2" transform="rotate(-90 64 2)" fill="#444444"/>
<rect x="96" y="322" width="2" height="2" transform="rotate(-90 96 322)" fill="#444444"/>
<rect x="96" y="290" width="2" height="2" transform="rotate(-90 96 290)" fill="#444444"/>
<rect x="96" y="258" width="2" height="2" transform="rotate(-90 96 258)" fill="#444444"/>
<rect x="96" y="226" width="2" height="2" transform="rotate(-90 96 226)" fill="#444444"/>
<rect x="96" y="194" width="2" height="2" transform="rotate(-90 96 194)" fill="#444444"/>
<rect x="96" y="162" width="2" height="2" transform="rotate(-90 96 162)" fill="#444444"/>
<rect x="96" y="130" width="2" height="2" transform="rotate(-90 96 130)" fill="#444444"/>
<rect x="96" y="98" width="2" height="2" transform="rotate(-90 96 98)" fill="#444444"/>
<rect x="96" y="66" width="2" height="2" transform="rotate(-90 96 66)" fill="#444444"/>
<rect x="96" y="34" width="2" height="2" transform="rotate(-90 96 34)" fill="#444444"/>
<rect x="96" y="2" width="2" height="2" transform="rotate(-90 96 2)" fill="#444444"/>
<rect x="128" y="322" width="2" height="2" transform="rotate(-90 128 322)" fill="#444444"/>
<rect x="128" y="290" width="2" height="2" transform="rotate(-90 128 290)" fill="#444444"/>
<rect x="128" y="258" width="2" height="2" transform="rotate(-90 128 258)" fill="#444444"/>
<rect x="128" y="226" width="2" height="2" transform="rotate(-90 128 226)" fill="#444444"/>
<rect x="128" y="194" width="2" height="2" transform="rotate(-90 128 194)" fill="#444444"/>
<rect x="128" y="162" width="2" height="2" transform="rotate(-90 128 162)" fill="#444444"/>
<rect x="128" y="130" width="2" height="2" transform="rotate(-90 128 130)" fill="#444444"/>
<rect x="128" y="98" width="2" height="2" transform="rotate(-90 128 98)" fill="#444444"/>
<rect x="128" y="66" width="2" height="2" transform="rotate(-90 128 66)" fill="#444444"/>
<rect x="128" y="34" width="2" height="2" transform="rotate(-90 128 34)" fill="#444444"/>
<rect x="128" y="2" width="2" height="2" transform="rotate(-90 128 2)" fill="#444444"/>
<rect x="160" y="322" width="2" height="2" transform="rotate(-90 160 322)" fill="#444444"/>
<rect x="160" y="290" width="2" height="2" transform="rotate(-90 160 290)" fill="#444444"/>
<rect x="160" y="258" width="2" height="2" transform="rotate(-90 160 258)" fill="#444444"/>
<rect x="160" y="226" width="2" height="2" transform="rotate(-90 160 226)" fill="#444444"/>
<rect x="160" y="194" width="2" height="2" transform="rotate(-90 160 194)" fill="#444444"/>
<rect x="160" y="162" width="2" height="2" transform="rotate(-90 160 162)" fill="#444444"/>
<rect x="160" y="130" width="2" height="2" transform="rotate(-90 160 130)" fill="#444444"/>
<rect x="160" y="98" width="2" height="2" transform="rotate(-90 160 98)" fill="#444444"/>
<rect x="160" y="66" width="2" height="2" transform="rotate(-90 160 66)" fill="#444444"/>
<rect x="160" y="34" width="2" height="2" transform="rotate(-90 160 34)" fill="#444444"/>
<rect x="160" y="2" width="2" height="2" transform="rotate(-90 160 2)" fill="#444444"/>
<rect x="192" y="322" width="2" height="2" transform="rotate(-90 192 322)" fill="#444444"/>
<rect x="192" y="290" width="2" height="2" transform="rotate(-90 192 290)" fill="#444444"/>
<rect x="192" y="258" width="2" height="2" transform="rotate(-90 192 258)" fill="#444444"/>
<rect x="192" y="226" width="2" height="2" transform="rotate(-90 192 226)" fill="#444444"/>
<rect x="192" y="194" width="2" height="2" transform="rotate(-90 192 194)" fill="#444444"/>
<rect x="192" y="162" width="2" height="2" transform="rotate(-90 192 162)" fill="#444444"/>
<rect x="192" y="130" width="2" height="2" transform="rotate(-90 192 130)" fill="#444444"/>
<rect x="192" y="98" width="2" height="2" transform="rotate(-90 192 98)" fill="#444444"/>
<rect x="192" y="66" width="2" height="2" transform="rotate(-90 192 66)" fill="#444444"/>
<rect x="192" y="34" width="2" height="2" transform="rotate(-90 192 34)" fill="#444444"/>
<rect x="192" y="2" width="2" height="2" transform="rotate(-90 192 2)" fill="#444444"/>
<rect x="224" y="322" width="2" height="2" transform="rotate(-90 224 322)" fill="#444444"/>
<rect x="224" y="290" width="2" height="2" transform="rotate(-90 224 290)" fill="#444444"/>
<rect x="224" y="258" width="2" height="2" transform="rotate(-90 224 258)" fill="#444444"/>
<rect x="224" y="226" width="2" height="2" transform="rotate(-90 224 226)" fill="#444444"/>
<rect x="224" y="194" width="2" height="2" transform="rotate(-90 224 194)" fill="#444444"/>
<rect x="224" y="162" width="2" height="2" transform="rotate(-90 224 162)" fill="#444444"/>
<rect x="224" y="130" width="2" height="2" transform="rotate(-90 224 130)" fill="#444444"/>
<rect x="224" y="98" width="2" height="2" transform="rotate(-90 224 98)" fill="#444444"/>
<rect x="224" y="66" width="2" height="2" transform="rotate(-90 224 66)" fill="#444444"/>
<rect x="224" y="34" width="2" height="2" transform="rotate(-90 224 34)" fill="#444444"/>
<rect x="224" y="2" width="2" height="2" transform="rotate(-90 224 2)" fill="#444444"/>
<rect x="256" y="322" width="2" height="2" transform="rotate(-90 256 322)" fill="#444444"/>
<rect x="256" y="290" width="2" height="2" transform="rotate(-90 256 290)" fill="#444444"/>
<rect x="256" y="258" width="2" height="2" transform="rotate(-90 256 258)" fill="#444444"/>
<rect x="256" y="226" width="2" height="2" transform="rotate(-90 256 226)" fill="#444444"/>
<rect x="256" y="194" width="2" height="2" transform="rotate(-90 256 194)" fill="#444444"/>
<rect x="256" y="162" width="2" height="2" transform="rotate(-90 256 162)" fill="#444444"/>
<rect x="256" y="130" width="2" height="2" transform="rotate(-90 256 130)" fill="#444444"/>
<rect x="256" y="98" width="2" height="2" transform="rotate(-90 256 98)" fill="#444444"/>
<rect x="256" y="66" width="2" height="2" transform="rotate(-90 256 66)" fill="#444444"/>
<rect x="256" y="34" width="2" height="2" transform="rotate(-90 256 34)" fill="#444444"/>
<rect x="256" y="2" width="2" height="2" transform="rotate(-90 256 2)" fill="#444444"/>
<rect x="288" y="322" width="2" height="2" transform="rotate(-90 288 322)" fill="#444444"/>
<rect x="288" y="290" width="2" height="2" transform="rotate(-90 288 290)" fill="#444444"/>
<rect x="288" y="258" width="2" height="2" transform="rotate(-90 288 258)" fill="#444444"/>
<rect x="288" y="226" width="2" height="2" transform="rotate(-90 288 226)" fill="#444444"/>
<rect x="288" y="194" width="2" height="2" transform="rotate(-90 288 194)" fill="#444444"/>
<rect x="288" y="162" width="2" height="2" transform="rotate(-90 288 162)" fill="#444444"/>
<rect x="288" y="130" width="2" height="2" transform="rotate(-90 288 130)" fill="#444444"/>
<rect x="288" y="98" width="2" height="2" transform="rotate(-90 288 98)" fill="#444444"/>
<rect x="288" y="66" width="2" height="2" transform="rotate(-90 288 66)" fill="#444444"/>
<rect x="288" y="34" width="2" height="2" transform="rotate(-90 288 34)" fill="#444444"/>
<rect x="288" y="2" width="2" height="2" transform="rotate(-90 288 2)" fill="#444444"/>
<rect x="320" y="322" width="2" height="2" transform="rotate(-90 320 322)" fill="#444444"/>
<rect x="320" y="290" width="2" height="2" transform="rotate(-90 320 290)" fill="#444444"/>
<rect x="320" y="258" width="2" height="2" transform="rotate(-90 320 258)" fill="#444444"/>
<rect x="320" y="226" width="2" height="2" transform="rotate(-90 320 226)" fill="#444444"/>
<rect x="320" y="194" width="2" height="2" transform="rotate(-90 320 194)" fill="#444444"/>
<rect x="320" y="162" width="2" height="2" transform="rotate(-90 320 162)" fill="#444444"/>
<rect x="320" y="130" width="2" height="2" transform="rotate(-90 320 130)" fill="#444444"/>
<rect x="320" y="98" width="2" height="2" transform="rotate(-90 320 98)" fill="#444444"/>
<rect x="320" y="66" width="2" height="2" transform="rotate(-90 320 66)" fill="#444444"/>
<rect x="320" y="34" width="2" height="2" transform="rotate(-90 320 34)" fill="#444444"/>
<rect x="320" y="2" width="2" height="2" transform="rotate(-90 320 2)" fill="#444444"/>
<rect x="352" y="322" width="2" height="2" transform="rotate(-90 352 322)" fill="#444444"/>
<rect x="352" y="290" width="2" height="2" transform="rotate(-90 352 290)" fill="#444444"/>
<rect x="352" y="258" width="2" height="2" transform="rotate(-90 352 258)" fill="#444444"/>
<rect x="352" y="226" width="2" height="2" transform="rotate(-90 352 226)" fill="#444444"/>
<rect x="352" y="194" width="2" height="2" transform="rotate(-90 352 194)" fill="#444444"/>
<rect x="352" y="162" width="2" height="2" transform="rotate(-90 352 162)" fill="#444444"/>
<rect x="352" y="130" width="2" height="2" transform="rotate(-90 352 130)" fill="#444444"/>
<rect x="352" y="98" width="2" height="2" transform="rotate(-90 352 98)" fill="#444444"/>
<rect x="352" y="66" width="2" height="2" transform="rotate(-90 352 66)" fill="#444444"/>
<rect x="352" y="34" width="2" height="2" transform="rotate(-90 352 34)" fill="#444444"/>
<rect x="352" y="2" width="2" height="2" transform="rotate(-90 352 2)" fill="#444444"/>
</g>
</svg>
