<svg width="290" height="290" viewBox="0 0 290 290" fill="none" xmlns="http://www.w3.org/2000/svg">
<g opacity="0.5">
<rect width="2" height="2" fill="#444444"/>
<rect x="32" width="2" height="2" fill="#444444"/>
<rect x="64" width="2" height="2" fill="#444444"/>
<rect x="96" width="2" height="2" fill="#444444"/>
<rect x="128" width="2" height="2" fill="#444444"/>
<rect x="160" width="2" height="2" fill="#444444"/>
<rect x="192" width="2" height="2" fill="#444444"/>
<rect x="224" width="2" height="2" fill="#444444"/>
<rect x="256" width="2" height="2" fill="#444444"/>
<rect x="288" width="2" height="2" fill="#444444"/>
<rect y="32" width="2" height="2" fill="#444444"/>
<rect x="32" y="32" width="2" height="2" fill="#444444"/>
<rect x="64" y="32" width="2" height="2" fill="#444444"/>
<rect x="96" y="32" width="2" height="2" fill="#444444"/>
<rect x="128" y="32" width="2" height="2" fill="#444444"/>
<rect x="160" y="32" width="2" height="2" fill="#444444"/>
<rect x="192" y="32" width="2" height="2" fill="#444444"/>
<rect x="224" y="32" width="2" height="2" fill="#444444"/>
<rect x="256" y="32" width="2" height="2" fill="#444444"/>
<rect x="288" y="32" width="2" height="2" fill="#444444"/>
<rect y="64" width="2" height="2" fill="#444444"/>
<rect x="32" y="64" width="2" height="2" fill="#444444"/>
<rect x="64" y="64" width="2" height="2" fill="#444444"/>
<rect x="96" y="64" width="2" height="2" fill="#444444"/>
<rect x="128" y="64" width="2" height="2" fill="#444444"/>
<rect x="160" y="64" width="2" height="2" fill="#444444"/>
<rect x="192" y="64" width="2" height="2" fill="#444444"/>
<rect x="224" y="64" width="2" height="2" fill="#444444"/>
<rect x="256" y="64" width="2" height="2" fill="#444444"/>
<rect x="288" y="64" width="2" height="2" fill="#444444"/>
<rect y="96" width="2" height="2" fill="#444444"/>
<rect x="32" y="96" width="2" height="2" fill="#444444"/>
<rect x="64" y="96" width="2" height="2" fill="#444444"/>
<rect x="96" y="96" width="2" height="2" fill="#444444"/>
<rect x="128" y="96" width="2" height="2" fill="#444444"/>
<rect x="160" y="96" width="2" height="2" fill="#444444"/>
<rect x="192" y="96" width="2" height="2" fill="#444444"/>
<rect x="224" y="96" width="2" height="2" fill="#444444"/>
<rect x="256" y="96" width="2" height="2" fill="#444444"/>
<rect x="288" y="96" width="2" height="2" fill="#444444"/>
<rect y="128" width="2" height="2" fill="#444444"/>
<rect x="32" y="128" width="2" height="2" fill="#444444"/>
<rect x="64" y="128" width="2" height="2" fill="#444444"/>
<rect x="96" y="128" width="2" height="2" fill="#444444"/>
<rect x="128" y="128" width="2" height="2" fill="#444444"/>
<rect x="160" y="128" width="2" height="2" fill="#444444"/>
<rect x="192" y="128" width="2" height="2" fill="#444444"/>
<rect x="224" y="128" width="2" height="2" fill="#444444"/>
<rect x="256" y="128" width="2" height="2" fill="#444444"/>
<rect x="288" y="128" width="2" height="2" fill="#444444"/>
<rect y="160" width="2" height="2" fill="#444444"/>
<rect x="32" y="160" width="2" height="2" fill="#444444"/>
<rect x="64" y="160" width="2" height="2" fill="#444444"/>
<rect x="96" y="160" width="2" height="2" fill="#444444"/>
<rect x="128" y="160" width="2" height="2" fill="#444444"/>
<rect x="160" y="160" width="2" height="2" fill="#444444"/>
<rect x="192" y="160" width="2" height="2" fill="#444444"/>
<rect x="224" y="160" width="2" height="2" fill="#444444"/>
<rect x="256" y="160" width="2" height="2" fill="#444444"/>
<rect x="288" y="160" width="2" height="2" fill="#444444"/>
<rect y="192" width="2" height="2" fill="#444444"/>
<rect x="32" y="192" width="2" height="2" fill="#444444"/>
<rect x="64" y="192" width="2" height="2" fill="#444444"/>
<rect x="96" y="192" width="2" height="2" fill="#444444"/>
<rect x="128" y="192" width="2" height="2" fill="#444444"/>
<rect x="160" y="192" width="2" height="2" fill="#444444"/>
<rect x="192" y="192" width="2" height="2" fill="#444444"/>
<rect x="224" y="192" width="2" height="2" fill="#444444"/>
<rect x="256" y="192" width="2" height="2" fill="#444444"/>
<rect x="288" y="192" width="2" height="2" fill="#444444"/>
<rect y="224" width="2" height="2" fill="#444444"/>
<rect x="32" y="224" width="2" height="2" fill="#444444"/>
<rect x="64" y="224" width="2" height="2" fill="#444444"/>
<rect x="96" y="224" width="2" height="2" fill="#444444"/>
<rect x="128" y="224" width="2" height="2" fill="#444444"/>
<rect x="160" y="224" width="2" height="2" fill="#444444"/>
<rect x="192" y="224" width="2" height="2" fill="#444444"/>
<rect x="224" y="224" width="2" height="2" fill="#444444"/>
<rect x="256" y="224" width="2" height="2" fill="#444444"/>
<rect x="288" y="224" width="2" height="2" fill="#444444"/>
<rect y="256" width="2" height="2" fill="#444444"/>
<rect x="32" y="256" width="2" height="2" fill="#444444"/>
<rect x="64" y="256" width="2" height="2" fill="#444444"/>
<rect x="96" y="256" width="2" height="2" fill="#444444"/>
<rect x="128" y="256" width="2" height="2" fill="#444444"/>
<rect x="160" y="256" width="2" height="2" fill="#444444"/>
<rect x="192" y="256" width="2" height="2" fill="#444444"/>
<rect x="224" y="256" width="2" height="2" fill="#444444"/>
<rect x="256" y="256" width="2" height="2" fill="#444444"/>
<rect x="288" y="256" width="2" height="2" fill="#444444"/>
<rect y="288" width="2" height="2" fill="#444444"/>
<rect x="32" y="288" width="2" height="2" fill="#444444"/>
<rect x="64" y="288" width="2" height="2" fill="#444444"/>
<rect x="96" y="288" width="2" height="2" fill="#444444"/>
<rect x="128" y="288" width="2" height="2" fill="#444444"/>
<rect x="160" y="288" width="2" height="2" fill="#444444"/>
<rect x="192" y="288" width="2" height="2" fill="#444444"/>
<rect x="224" y="288" width="2" height="2" fill="#444444"/>
<rect x="256" y="288" width="2" height="2" fill="#444444"/>
<rect x="288" y="288" width="2" height="2" fill="#444444"/>
</g>
</svg>
